Coordinates
version=1
nRows=37
nColumns=34
inDegrees=no

Units are S.I. units (second, meters, Newtons, ...)
If the header above contains a line with 'inDegrees', this indicates whether rotational values are in degrees (yes) or radians (no).

endheader
time	pelvis_tilt	pelvis_list	pelvis_rotation	pelvis_tx	pelvis_ty	pelvis_tz	hip_flexion_r	hip_adduction_r	hip_rotation_r	knee_angle_r	ankle_angle_r	subtalar_angle_r	mtp_angle_r	hip_flexion_l	hip_adduction_l	hip_rotation_l	knee_angle_l	ankle_angle_l	subtalar_angle_l	mtp_angle_l	lumbar_extension	lumbar_bending	lumbar_rotation	arm_flex_r	arm_add_r	arm_rot_r	elbow_flex_r	pro_sup_r	arm_flex_l	arm_add_l	arm_rot_l	elbow_flex_l	pro_sup_l
0.38	0.0989884	-0.0283248	0.110182	0.430424	1.16146	-0.205474	-0.134628	0.101281	-0.259281	0.094463	0.1459	0.107508	-0.0445838	0.379962	-0.0755446	-0.107385	0.608363	-0.128087	-0.330023	-0.0966568	-0.316898	0.117067	-0.0184052	-0.121021	-0.211993	-0.256833	0.864254	2.10106	-0.148237	-0.138336	-0.0880723	0.878048	2.04652
0.39	0.0983219	-0.0287682	0.110101	0.439749	1.16041	-0.205303	-0.14838	0.103976	-0.258811	0.0857181	0.15142	0.114196	-0.0447042	0.37812	-0.073038	-0.121124	0.558842	-0.120032	-0.302337	-0.096577	-0.318293	0.116369	-0.0180685	-0.118941	-0.21306	-0.258153	0.871476	2.1	-0.147096	-0.138194	-0.0879556	0.874793	2.05461
0.4	0.0978773	-0.0291437	0.109736	0.449118	1.15923	-0.205155	-0.162152	0.10648	-0.258074	0.0775269	0.157146	0.120739	-0.0448246	0.375203	-0.0700979	-0.135383	0.509778	-0.111127	-0.270447	-0.0964973	-0.31995	0.115495	-0.0175928	-0.11701	-0.213981	-0.259545	0.878456	2.09939	-0.145896	-0.13813	-0.0877026	0.871378	2.06187
0.41	0.0976879	-0.0293838	0.109153	0.45854	1.15796	-0.205035	-0.175946	0.108715	-0.257186	0.0699535	0.163106	0.127141	-0.044945	0.371251	-0.0665666	-0.149606	0.461474	-0.101557	-0.234974	-0.0964176	-0.321885	0.114377	-0.0170439	-0.115207	-0.21475	-0.260945	0.885098	2.09942	-0.144637	-0.138142	-0.0873209	0.867977	2.06742
0.42	0.0977873	-0.0294247	0.108437	0.468022	1.15659	-0.204951	-0.189766	0.110617	-0.256266	0.0630555	0.169306	0.13337	-0.0450654	0.366292	-0.0623082	-0.163154	0.414194	-0.0916099	-0.196826	-0.0963378	-0.324114	0.112963	-0.0165154	-0.113505	-0.215357	-0.262284	0.891313	2.10018	-0.143326	-0.138228	-0.0868171	0.864706	2.07072
0.43	0.0982014	-0.0292161	0.107681	0.477576	1.15515	-0.204911	-0.203606	0.112142	-0.255427	0.056895	0.17574	0.139373	-0.0451859	0.360362	-0.0572348	-0.175376	0.368187	-0.0816002	-0.157106	-0.0962581	-0.326645	0.111219	-0.0161098	-0.111868	-0.215795	-0.263501	0.89702	2.10168	-0.141973	-0.138387	-0.0862028	0.861612	2.07163
0.44	0.0989401	-0.0287298	0.106967	0.487209	1.15366	-0.204922	-0.217436	0.113272	-0.254757	0.0515477	0.182381	0.145076	-0.0453063	0.353524	-0.0513305	-0.185702	0.323729	-0.0718117	-0.116998	-0.0961784	-0.329469	0.109137	-0.015919	-0.11027	-0.216052	-0.264551	0.902155	2.10378	-0.140597	-0.138616	-0.0854995	0.85868	2.07037
0.45	0.0999905	-0.0279666	0.106356	0.496932	1.15212	-0.204986	-0.231192	0.114009	-0.254322	0.0471074	0.189193	0.150403	-0.0454268	0.34589	-0.0446662	-0.193718	0.281158	-0.0624443	-0.0776516	-0.0960987	-0.332551	0.106733	-0.0160064	-0.108699	-0.216119	-0.265409	0.906672	2.10625	-0.139223	-0.138911	-0.0847416	0.855844	2.06748
0.46	0.101313	-0.0269569	0.105879	0.50675	1.15055	-0.205106	-0.244772	0.114383	-0.254155	0.043683	0.19613	0.15528	-0.0455473	0.33764	-0.0373992	-0.199234	0.240906	-0.0535864	-0.0400929	-0.0960189	-0.335825	0.104046	-0.0163975	-0.107162	-0.215989	-0.26607	0.910541	2.10885	-0.137884	-0.139263	-0.0839784	0.853002	2.06362
0.47	0.102842	-0.0257553	0.105536	0.516674	1.14896	-0.205279	-0.258043	0.114437	-0.254262	0.0413894	0.20314	0.159653	-0.0456678	0.329017	-0.0297564	-0.202296	0.2035	-0.0452162	-0.00516247	-0.0959392	-0.339195	0.101132	-0.0170766	-0.105693	-0.215656	-0.266552	0.913751	2.11129	-0.136617	-0.139657	-0.0832746	0.850041	2.05947
0.48	0.104492	-0.0244298	0.105301	0.526708	1.14736	-0.205501	-0.270857	0.114216	-0.254626	0.0403325	0.210169	0.16348	-0.0457883	0.32031	-0.0220022	-0.203168	0.169538	-0.0372334	0.0265001	-0.0958596	-0.342542	0.0980515	-0.0179929	-0.104349	-0.215118	-0.26689	0.916307	2.11339	-0.13546	-0.14007	-0.0827091	0.846849	2.05559
0.49	0.106165	-0.0230484	0.105127	0.536859	1.14576	-0.205766	-0.283063	0.113763	-0.255207	0.0405943	0.217155	0.166733	-0.0459088	0.31183	-0.0143982	-0.202249	0.139637	-0.0295172	0.0544306	-0.0957799	-0.345736	0.0948563	-0.0190704	-0.103201	-0.214377	-0.267127	0.918225	2.11501	-0.134448	-0.140475	-0.0823711	0.843327	2.05242
0.5	0.107762	-0.0216654	0.104959	0.547133	1.14416	-0.206064	-0.294527	0.113099	-0.255945	0.0422229	0.224032	0.169382	-0.0460293	0.303866	-0.00716529	-0.199991	0.114351	-0.0219979	0.0782929	-0.0957002	-0.348651	0.0915792	-0.020221	-0.10233	-0.213439	-0.267305	0.919527	2.11613	-0.133609	-0.140841	-0.0823527	0.839391	2.05024
0.51	0.109194	-0.0203092	0.104736	0.557538	1.14257	-0.206388	-0.305149	0.112221	-0.256766	0.0452299	0.230723	0.171383	-0.0461498	0.296649	-0.000454949	-0.196799	0.094096	-0.0147305	0.0978262	-0.0956206	-0.351178	0.0882249	-0.0213574	-0.101815	-0.212318	-0.267461	0.920242	2.11676	-0.132962	-0.141137	-0.0827401	0.834981	2.04917
0.52	0.110395	-0.018976	0.104406	0.568081	1.141	-0.206732	-0.314869	0.111097	-0.257587	0.0495984	0.237139	0.172671	-0.0462703	0.290317	0.00566602	-0.192969	0.0790791	-0.00795434	0.112799	-0.095541	-0.353244	0.0847674	-0.0224048	-0.101722	-0.21103	-0.267613	0.920396	2.11702	-0.132517	-0.141337	-0.0836023	0.830062	2.04922
0.53	0.111329	-0.0176293	0.103929	0.578768	1.13945	-0.20709	-0.323673	0.109666	-0.258322	0.0552971	0.243181	0.173162	-0.0463908	0.284906	0.0112168	-0.188649	0.0692543	-0.00212376	0.122984	-0.0954614	-0.354815	0.0811516	-0.0233124	-0.102099	-0.209599	-0.26776	0.920006	2.11699	-0.132276	-0.141426	-0.0849831	0.82463	2.05035
0.54	0.111995	-0.0162043	0.103286	0.589606	1.13793	-0.20746	-0.331584	0.107845	-0.258904	0.0622985	0.24874	0.172754	-0.0465113	0.280345	0.0162916	-0.183851	0.0643184	0.00210822	0.128167	-0.0953818	-0.355903	0.0772986	-0.0240623	-0.10297	-0.208048	-0.267878	0.919077	2.11679	-0.132234	-0.1414	-0.0868948	0.818716	2.05241
0.55	0.112425	-0.0146183	0.102482	0.600597	1.13645	-0.207842	-0.338659	0.105541	-0.259287	0.0705946	0.253689	0.171341	-0.0466318	0.276488	0.0210376	-0.178492	0.0637495	0.00396499	0.128183	-0.0953023	-0.356562	0.0731142	-0.0246761	-0.104329	-0.206399	-0.267923	0.917594	2.11651	-0.132383	-0.141267	-0.089317	0.81239	2.05523
0.56	0.112698	-0.0127465	0.101555	0.611743	1.13505	-0.208249	-0.344961	0.102659	-0.259463	0.0802065	0.257878	0.168823	-0.0467523	0.27315	0.0256184	-0.172464	0.0668821	0.00268027	0.122991	-0.0952228	-0.356871	0.0685111	-0.0252139	-0.106145	-0.204665	-0.267839	0.915516	2.11622	-0.132711	-0.141052	-0.0921984	0.805764	2.05854
0.57	0.112907	-0.010492	0.100572	0.623039	1.13376	-0.208683	-0.350565	0.0991152	-0.259465	0.091191	0.261126	0.165122	-0.0468728	0.27014	0.0301985	-0.165703	0.0730181	-0.00232666	0.112762	-0.0951433	-0.356942	0.0634015	-0.0257738	-0.108361	-0.202847	-0.267567	0.912781	2.11596	-0.133206	-0.140792	-0.0954618	0.798983	2.06202
0.58	0.113155	-0.00777566	0.0996251	0.634476	1.1326	-0.209149	-0.355532	0.0948428	-0.259363	0.10364	0.263203	0.160187	-0.0469933	0.267306	0.0349086	-0.158242	0.0815344	-0.0112691	0.0979383	-0.0950638	-0.356897	0.0577194	-0.0264797	-0.110902	-0.200933	-0.267062	0.909303	2.11576	-0.13385	-0.14053	-0.0990126	0.792211	2.06528
0.59	0.113542	-0.00455099	0.0988271	0.646039	1.13159	-0.209648	-0.359892	0.0898109	-0.259251	0.11768	0.263826	0.153986	-0.0471138	0.264561	0.0398238	-0.15022	0.0919717	-0.0238523	0.0792679	-0.0949844	-0.356857	0.0514345	-0.0274643	-0.113683	-0.198892	-0.266305	0.904991	2.11561	-0.13462	-0.140315	-0.102746	0.785611	2.06789
0.6	0.114142	-0.000815674	0.0982974	0.657708	1.13075	-0.210183	-0.363622	0.0840297	-0.259229	0.133472	0.262644	0.146494	-0.0472342	0.261894	0.0449529	-0.141849	0.104073	-0.0392224	0.0577515	-0.094905	-0.356927	0.044566	-0.0288492	-0.116616	-0.196686	-0.265309	0.899754	2.1155	-0.135483	-0.140195	-0.10656	0.779316	2.06947
0.61	0.114991	0.00338204	0.0981472	0.669466	1.13011	-0.210757	-0.366622	0.0775532	-0.259377	0.151216	0.25924	0.13767	-0.0473547	0.25936	0.05024	-0.13335	0.117765	-0.0560308	0.0345443	-0.0948257	-0.357177	0.0371915	-0.0307226	-0.119628	-0.19427	-0.264129	0.893528	2.11543	-0.136397	-0.140205	-0.110363	0.773411	2.0697
0.62	0.116075	0.00794389	0.0984609	0.681287	1.12967	-0.211371	-0.368699	0.0704721	-0.259731	0.171151	0.253145	0.127442	-0.0474752	0.257053	0.0555776	-0.124895	0.133073	-0.0726161	0.0108168	-0.0947463	-0.357627	0.0294487	-0.0331189	-0.122665	-0.191608	-0.262855	0.886289	2.11538	-0.137312	-0.140367	-0.114081	0.76792	2.06844
0.63	0.11733	0.0127289	0.0992766	0.693151	1.12943	-0.212029	-0.369557	0.0628991	-0.260261	0.193556	0.243856	0.115693	-0.0475956	0.255065	0.0608298	-0.116557	0.150009	-0.0872708	-0.012388	-0.094667	-0.358242	0.0215244	-0.0360032	-0.125698	-0.188679	-0.261601	0.878072	2.11534	-0.138174	-0.14068	-0.117668	0.762812	2.06575
0.64	0.118654	0.0175656	0.100567	0.705032	1.1294	-0.212729	-0.368809	0.0549468	-0.260863	0.218746	0.230874	0.102272	-0.0477161	0.253443	0.0658558	-0.10832	0.168447	-0.0985232	-0.0342485	-0.0945878	-0.358932	0.0136323	-0.0392631	-0.128727	-0.185488	-0.260492	0.868978	2.11529	-0.138936	-0.141121	-0.121108	0.758025	2.06188
0.65	0.119913	0.0222714	0.102225	0.716906	1.12957	-0.21347	-0.366005	0.0467064	-0.261346	0.247053	0.21375	0.0870086	-0.0478366	0.252154	0.0705317	-0.100133	0.188046	-0.105371	-0.0542062	-0.0945085	-0.359566	0.00598287	-0.0427099	-0.131772	-0.182071	-0.259639	0.859182	2.11524	-0.139562	-0.141649	-0.124409	0.753496	2.05726
0.66	0.120966	0.0266782	0.104059	0.72875	1.12993	-0.214242	-0.360682	0.0382314	-0.261439	0.278799	0.192132	0.0697457	-0.047957	0.251073	0.0747639	-0.0919822	0.208223	-0.107414	-0.0719566	-0.0944293	-0.360001	-0.00124912	-0.0460903	-0.134866	-0.178497	-0.259115	0.84892	2.11518	-0.140038	-0.142211	-0.127598	0.749197	2.05243
0.67	0.121691	0.0306536	0.105801	0.740539	1.13047	-0.215032	-0.352419	0.0295301	-0.260798	0.314254	0.165821	0.0503756	-0.0480775	0.249983	0.0784952	-0.0839564	0.228205	-0.104848	-0.0873995	-0.0943502	-0.360104	-0.00795351	-0.0491088	-0.138043	-0.174866	-0.258934	0.838475	2.11511	-0.140375	-0.142757	-0.130711	0.74516	2.04795
0.68	0.122004	0.0341166	0.107126	0.75225	1.13116	-0.215821	-0.340896	0.0205732	-0.25903	0.353593	0.134819	0.0288839	-0.0481979	0.248608	0.0817052	-0.0762867	0.247128	-0.0983551	-0.100574	-0.0942711	-0.359783	-0.0141018	-0.0514613	-0.141317	-0.171298	-0.259038	0.828152	2.11503	-0.140612	-0.143246	-0.133776	0.741484	2.04435
0.69	0.121871	0.0370476	0.107689	0.763863	1.13197	-0.216583	-0.325935	0.011319	-0.255734	0.396853	0.0993713	0.00538881	-0.0483183	0.246652	0.0844025	-0.0693297	0.264171	-0.0889085	-0.111593	-0.0941921	-0.35901	-0.0197413	-0.0528761	-0.144679	-0.16793	-0.259285	0.818253	2.11495	-0.14081	-0.143664	-0.136805	0.73833	2.04202
0.7	0.121308	0.0394898	0.10717	0.775363	1.13289	-0.217291	-0.307532	0.00174276	-0.250552	0.443894	0.0600023	-0.0198306	-0.0484388	0.243849	0.0866157	-0.0635086	0.278679	-0.0775636	-0.120601	-0.0941131	-0.357816	-0.0249754	-0.0531564	-0.148083	-0.164894	-0.259467	0.80904	2.11487	-0.141043	-0.144024	-0.139783	0.735892	2.04119
0.71	0.120384	0.0415349	0.105321	0.786732	1.13388	-0.217922	-0.285857	-0.00813956	-0.24323	0.494381	0.017525	-0.0463272	-0.0485592	0.239996	0.0883892	-0.0592276	0.290245	-0.0652828	-0.127744	-0.0940342	-0.356296	-0.0299377	-0.0522153	-0.151448	-0.16231	-0.259332	0.800721	2.11478	-0.141391	-0.14437	-0.142661	0.734368	2.04191
0.72	0.119217	0.0432999	0.10201	0.797954	1.13492	-0.218457	-0.261252	-0.0182559	-0.233669	0.547775	-0.0269674	-0.0735104	-0.0486795	0.234969	0.0897803	-0.0567836	0.29874	-0.0528228	-0.133161	-0.0939553	-0.354594	-0.0347615	-0.0500995	-0.154662	-0.160269	-0.258624	0.793426	2.11469	-0.141922	-0.144769	-0.145363	0.733916	2.04403
0.73	0.117957	0.0449013	0.0972466	0.809016	1.13601	-0.218886	-0.234201	-0.0284732	-0.221963	0.603349	-0.0721353	-0.100697	-0.0487999	0.228723	0.0908555	-0.0563014	0.304298	-0.0406909	-0.136988	-0.0938765	-0.352883	-0.0395493	-0.0469924	-0.157599	-0.158821	-0.257128	0.787207	2.11461	-0.142685	-0.145301	-0.147796	0.734631	2.04724
0.74	0.116769	0.0464325	0.0911846	0.819908	1.13712	-0.219208	-0.205294	-0.0386027	-0.208403	0.660218	-0.116453	-0.127188	-0.0489202	0.221276	0.0916807	-0.0577059	0.307248	-0.02916	-0.139352	-0.0937977	-0.351355	-0.0443473	-0.0431957	-0.160137	-0.157968	-0.254713	0.782048	2.11453	-0.143699	-0.146046	-0.149857	0.736519	2.05112
